<svg xmlns="http://www.w3.org/2000/svg" viewBox="0 0 179.41 179.17"><defs><style>.cls-1{fill:none;stroke:#170c3e;stroke-miterlimit:10;}</style></defs><title>Fichier 1</title><g id="Calque_2" data-name="Calque 2"><g id="Calque_2-2" data-name="Calque 2"><path class="cls-1" d="M77.9,5.82A25.08,25.08,0,0,1,88.11.72C93.79-.42,99.46,3.18,100.6,4.31s20.23,20,20.23,20l54.65,55.41s3.78,5.67,3.4,10a21,21,0,0,1-5.86,13c-3.78,3.78-74.5,73.56-74.5,73.56a82.3,82.3,0,0,1-8.89,2.27c-2.08.19-9.83-3.21-13-6.05s-74.31-76-74.31-76a33,33,0,0,1-1.7-7C0,85.43,3.4,80,4.72,78.44S77.9,5.82,77.9,5.82Z"/></g></g></svg>